<svg width="50px" height="50px" viewBox="0 0 485 485" fill="none" xmlns="http://www.w3.org/2000/svg">
<path d="M413.974 71.026C368.171 25.225 307.274 0 242.5 0C177.726 0 116.829 25.225 71.026 71.026C25.225 116.829 0 177.726 0 242.5C0 307.274 25.225 368.171 71.026 413.974C116.829 459.775 177.726 485 242.5 485C307.274 485 368.171 459.775 413.974 413.974C459.775 368.171 485 307.274 485 242.5C485 177.726 459.775 116.829 413.974 71.026ZM242.5 455C125.327 455 30 359.673 30 242.5C30 125.327 125.327 30 242.5 30C359.673 30 455 125.327 455 242.5C455 359.673 359.673 455 242.5 455Z" fill="white"/>
<path d="M181.062 336.575L343.938 242.5L181.062 148.425V336.575Z" fill="white"/>
</svg>
